<mxfile host="app.diagrams.net" modified="2023-04-19T09:22:08.403Z" agent="Mozilla/5.0 (Macintosh; Intel Mac OS X 10_15_7) AppleWebKit/605.1.15 (KHTML, like Gecko) Version/15.1 Safari/605.1.15" etag="uOkU6xQObie3iulZfzyU" version="21.1.8" type="github" pages="2">
  <diagram name="Page-1" id="7rma9f0evLkvwFBQz9IS">
    <mxGraphModel dx="1406" dy="622" grid="1" gridSize="10" guides="1" tooltips="1" connect="1" arrows="1" fold="1" page="1" pageScale="1" pageWidth="827" pageHeight="1169" math="0" shadow="0">
      <root>
        <mxCell id="0" />
        <mxCell id="1" parent="0" />
        <mxCell id="cMjgXd80cKfCGWRYWP1n-1" value="ROOT NODE" style="rounded=0;whiteSpace=wrap;html=1;fillColor=#dae8fc;strokeColor=#6c8ebf;" vertex="1" parent="1">
          <mxGeometry x="354" y="40" width="120" height="60" as="geometry" />
        </mxCell>
        <mxCell id="cMjgXd80cKfCGWRYWP1n-2" value="" style="shape=table;startSize=0;container=1;collapsible=0;childLayout=tableLayout;fontSize=16;" vertex="1" parent="1">
          <mxGeometry x="234" y="100" width="360" height="40" as="geometry" />
        </mxCell>
        <mxCell id="cMjgXd80cKfCGWRYWP1n-3" value="" style="shape=tableRow;horizontal=0;startSize=0;swimlaneHead=0;swimlaneBody=0;strokeColor=inherit;top=0;left=0;bottom=0;right=0;collapsible=0;dropTarget=0;fillColor=none;points=[[0,0.5],[1,0.5]];portConstraint=eastwest;fontSize=16;" vertex="1" parent="cMjgXd80cKfCGWRYWP1n-2">
          <mxGeometry width="360" height="40" as="geometry" />
        </mxCell>
        <mxCell id="cMjgXd80cKfCGWRYWP1n-4" value="null" style="shape=partialRectangle;html=1;whiteSpace=wrap;connectable=0;strokeColor=inherit;overflow=hidden;fillColor=none;top=0;left=0;bottom=0;right=0;pointerEvents=1;fontSize=12;" vertex="1" parent="cMjgXd80cKfCGWRYWP1n-3">
          <mxGeometry width="60" height="40" as="geometry">
            <mxRectangle width="60" height="40" as="alternateBounds" />
          </mxGeometry>
        </mxCell>
        <mxCell id="cMjgXd80cKfCGWRYWP1n-5" value="null" style="shape=partialRectangle;html=1;whiteSpace=wrap;connectable=0;strokeColor=inherit;overflow=hidden;fillColor=none;top=0;left=0;bottom=0;right=0;pointerEvents=1;fontSize=12;" vertex="1" parent="cMjgXd80cKfCGWRYWP1n-3">
          <mxGeometry x="60" width="60" height="40" as="geometry">
            <mxRectangle width="60" height="40" as="alternateBounds" />
          </mxGeometry>
        </mxCell>
        <mxCell id="cMjgXd80cKfCGWRYWP1n-38" value="&lt;b&gt;ptr&lt;/b&gt;" style="shape=partialRectangle;html=1;whiteSpace=wrap;connectable=0;strokeColor=#d6b656;overflow=hidden;fillColor=#fff2cc;top=0;left=0;bottom=0;right=0;pointerEvents=1;fontSize=12;" vertex="1" parent="cMjgXd80cKfCGWRYWP1n-3">
          <mxGeometry x="120" width="56" height="40" as="geometry">
            <mxRectangle width="56" height="40" as="alternateBounds" />
          </mxGeometry>
        </mxCell>
        <mxCell id="cMjgXd80cKfCGWRYWP1n-37" value="null" style="shape=partialRectangle;html=1;whiteSpace=wrap;connectable=0;strokeColor=inherit;overflow=hidden;fillColor=none;top=0;left=0;bottom=0;right=0;pointerEvents=1;fontSize=12;" vertex="1" parent="cMjgXd80cKfCGWRYWP1n-3">
          <mxGeometry x="176" width="64" height="40" as="geometry">
            <mxRectangle width="64" height="40" as="alternateBounds" />
          </mxGeometry>
        </mxCell>
        <mxCell id="cMjgXd80cKfCGWRYWP1n-36" value="null" style="shape=partialRectangle;html=1;whiteSpace=wrap;connectable=0;strokeColor=inherit;overflow=hidden;fillColor=none;top=0;left=0;bottom=0;right=0;pointerEvents=1;fontSize=12;" vertex="1" parent="cMjgXd80cKfCGWRYWP1n-3">
          <mxGeometry x="240" width="60" height="40" as="geometry">
            <mxRectangle width="60" height="40" as="alternateBounds" />
          </mxGeometry>
        </mxCell>
        <mxCell id="cMjgXd80cKfCGWRYWP1n-6" value="null" style="shape=partialRectangle;html=1;whiteSpace=wrap;connectable=0;strokeColor=inherit;overflow=hidden;fillColor=none;top=0;left=0;bottom=0;right=0;pointerEvents=1;fontSize=12;" vertex="1" parent="cMjgXd80cKfCGWRYWP1n-3">
          <mxGeometry x="300" width="60" height="40" as="geometry">
            <mxRectangle width="60" height="40" as="alternateBounds" />
          </mxGeometry>
        </mxCell>
        <mxCell id="cMjgXd80cKfCGWRYWP1n-47" value="" style="shape=table;startSize=0;container=1;collapsible=0;childLayout=tableLayout;fontSize=16;" vertex="1" parent="1">
          <mxGeometry x="70" y="240" width="360" height="40" as="geometry" />
        </mxCell>
        <mxCell id="cMjgXd80cKfCGWRYWP1n-48" value="" style="shape=tableRow;horizontal=0;startSize=0;swimlaneHead=0;swimlaneBody=0;strokeColor=inherit;top=0;left=0;bottom=0;right=0;collapsible=0;dropTarget=0;fillColor=none;points=[[0,0.5],[1,0.5]];portConstraint=eastwest;fontSize=16;" vertex="1" parent="cMjgXd80cKfCGWRYWP1n-47">
          <mxGeometry width="360" height="40" as="geometry" />
        </mxCell>
        <mxCell id="cMjgXd80cKfCGWRYWP1n-49" value="&lt;b&gt;ptr&lt;/b&gt;" style="shape=partialRectangle;html=1;whiteSpace=wrap;connectable=0;strokeColor=#d6b656;overflow=hidden;fillColor=#fff2cc;top=0;left=0;bottom=0;right=0;pointerEvents=1;fontSize=12;" vertex="1" parent="cMjgXd80cKfCGWRYWP1n-48">
          <mxGeometry width="60" height="40" as="geometry">
            <mxRectangle width="60" height="40" as="alternateBounds" />
          </mxGeometry>
        </mxCell>
        <mxCell id="cMjgXd80cKfCGWRYWP1n-50" value="null" style="shape=partialRectangle;html=1;whiteSpace=wrap;connectable=0;strokeColor=inherit;overflow=hidden;fillColor=none;top=0;left=0;bottom=0;right=0;pointerEvents=1;fontSize=12;" vertex="1" parent="cMjgXd80cKfCGWRYWP1n-48">
          <mxGeometry x="60" width="60" height="40" as="geometry">
            <mxRectangle width="60" height="40" as="alternateBounds" />
          </mxGeometry>
        </mxCell>
        <mxCell id="cMjgXd80cKfCGWRYWP1n-51" value="null" style="shape=partialRectangle;html=1;whiteSpace=wrap;connectable=0;strokeColor=inherit;overflow=hidden;fillColor=none;top=0;left=0;bottom=0;right=0;pointerEvents=1;fontSize=12;" vertex="1" parent="cMjgXd80cKfCGWRYWP1n-48">
          <mxGeometry x="120" width="56" height="40" as="geometry">
            <mxRectangle width="56" height="40" as="alternateBounds" />
          </mxGeometry>
        </mxCell>
        <mxCell id="cMjgXd80cKfCGWRYWP1n-52" value="null" style="shape=partialRectangle;html=1;whiteSpace=wrap;connectable=0;strokeColor=inherit;overflow=hidden;fillColor=none;top=0;left=0;bottom=0;right=0;pointerEvents=1;fontSize=12;" vertex="1" parent="cMjgXd80cKfCGWRYWP1n-48">
          <mxGeometry x="176" width="64" height="40" as="geometry">
            <mxRectangle width="64" height="40" as="alternateBounds" />
          </mxGeometry>
        </mxCell>
        <mxCell id="cMjgXd80cKfCGWRYWP1n-53" value="null" style="shape=partialRectangle;html=1;whiteSpace=wrap;connectable=0;strokeColor=inherit;overflow=hidden;fillColor=none;top=0;left=0;bottom=0;right=0;pointerEvents=1;fontSize=12;" vertex="1" parent="cMjgXd80cKfCGWRYWP1n-48">
          <mxGeometry x="240" width="60" height="40" as="geometry">
            <mxRectangle width="60" height="40" as="alternateBounds" />
          </mxGeometry>
        </mxCell>
        <mxCell id="cMjgXd80cKfCGWRYWP1n-54" value="null" style="shape=partialRectangle;html=1;whiteSpace=wrap;connectable=0;strokeColor=inherit;overflow=hidden;fillColor=none;top=0;left=0;bottom=0;right=0;pointerEvents=1;fontSize=12;" vertex="1" parent="cMjgXd80cKfCGWRYWP1n-48">
          <mxGeometry x="300" width="60" height="40" as="geometry">
            <mxRectangle width="60" height="40" as="alternateBounds" />
          </mxGeometry>
        </mxCell>
        <mxCell id="cMjgXd80cKfCGWRYWP1n-56" value="" style="endArrow=classic;html=1;rounded=0;exitX=0.408;exitY=1;exitDx=0;exitDy=0;exitPerimeter=0;fillColor=#e1d5e7;strokeColor=#000000;entryX=0.5;entryY=0;entryDx=0;entryDy=0;" edge="1" parent="1" source="cMjgXd80cKfCGWRYWP1n-3" target="cMjgXd80cKfCGWRYWP1n-80">
          <mxGeometry width="50" height="50" relative="1" as="geometry">
            <mxPoint x="390" y="350" as="sourcePoint" />
            <mxPoint x="230" y="160" as="targetPoint" />
            <Array as="points">
              <mxPoint x="330" y="170" />
            </Array>
          </mxGeometry>
        </mxCell>
        <mxCell id="cMjgXd80cKfCGWRYWP1n-57" value="" style="shape=table;startSize=0;container=1;collapsible=0;childLayout=tableLayout;fontSize=16;" vertex="1" parent="1">
          <mxGeometry x="30" y="420" width="360" height="40" as="geometry" />
        </mxCell>
        <mxCell id="cMjgXd80cKfCGWRYWP1n-58" value="" style="shape=tableRow;horizontal=0;startSize=0;swimlaneHead=0;swimlaneBody=0;strokeColor=inherit;top=0;left=0;bottom=0;right=0;collapsible=0;dropTarget=0;fillColor=none;points=[[0,0.5],[1,0.5]];portConstraint=eastwest;fontSize=16;" vertex="1" parent="cMjgXd80cKfCGWRYWP1n-57">
          <mxGeometry width="360" height="40" as="geometry" />
        </mxCell>
        <mxCell id="cMjgXd80cKfCGWRYWP1n-59" value="null" style="shape=partialRectangle;html=1;whiteSpace=wrap;connectable=0;strokeColor=inherit;overflow=hidden;fillColor=none;top=0;left=0;bottom=0;right=0;pointerEvents=1;fontSize=12;" vertex="1" parent="cMjgXd80cKfCGWRYWP1n-58">
          <mxGeometry width="60" height="40" as="geometry">
            <mxRectangle width="60" height="40" as="alternateBounds" />
          </mxGeometry>
        </mxCell>
        <mxCell id="cMjgXd80cKfCGWRYWP1n-60" value="null" style="shape=partialRectangle;html=1;whiteSpace=wrap;connectable=0;strokeColor=inherit;overflow=hidden;fillColor=none;top=0;left=0;bottom=0;right=0;pointerEvents=1;fontSize=12;" vertex="1" parent="cMjgXd80cKfCGWRYWP1n-58">
          <mxGeometry x="60" width="60" height="40" as="geometry">
            <mxRectangle width="60" height="40" as="alternateBounds" />
          </mxGeometry>
        </mxCell>
        <mxCell id="cMjgXd80cKfCGWRYWP1n-61" value="null" style="shape=partialRectangle;html=1;whiteSpace=wrap;connectable=0;strokeColor=inherit;overflow=hidden;fillColor=none;top=0;left=0;bottom=0;right=0;pointerEvents=1;fontSize=12;" vertex="1" parent="cMjgXd80cKfCGWRYWP1n-58">
          <mxGeometry x="120" width="56" height="40" as="geometry">
            <mxRectangle width="56" height="40" as="alternateBounds" />
          </mxGeometry>
        </mxCell>
        <mxCell id="cMjgXd80cKfCGWRYWP1n-62" value="&lt;b&gt;ptr&lt;/b&gt;" style="shape=partialRectangle;html=1;whiteSpace=wrap;connectable=0;strokeColor=#d6b656;overflow=hidden;fillColor=#fff2cc;top=0;left=0;bottom=0;right=0;pointerEvents=1;fontSize=12;" vertex="1" parent="cMjgXd80cKfCGWRYWP1n-58">
          <mxGeometry x="176" width="64" height="40" as="geometry">
            <mxRectangle width="64" height="40" as="alternateBounds" />
          </mxGeometry>
        </mxCell>
        <mxCell id="cMjgXd80cKfCGWRYWP1n-63" value="null" style="shape=partialRectangle;html=1;whiteSpace=wrap;connectable=0;strokeColor=inherit;overflow=hidden;fillColor=none;top=0;left=0;bottom=0;right=0;pointerEvents=1;fontSize=12;" vertex="1" parent="cMjgXd80cKfCGWRYWP1n-58">
          <mxGeometry x="240" width="60" height="40" as="geometry">
            <mxRectangle width="60" height="40" as="alternateBounds" />
          </mxGeometry>
        </mxCell>
        <mxCell id="cMjgXd80cKfCGWRYWP1n-64" value="null" style="shape=partialRectangle;html=1;whiteSpace=wrap;connectable=0;strokeColor=inherit;overflow=hidden;fillColor=none;top=0;left=0;bottom=0;right=0;pointerEvents=1;fontSize=12;" vertex="1" parent="cMjgXd80cKfCGWRYWP1n-58">
          <mxGeometry x="300" width="60" height="40" as="geometry">
            <mxRectangle width="60" height="40" as="alternateBounds" />
          </mxGeometry>
        </mxCell>
        <mxCell id="cMjgXd80cKfCGWRYWP1n-65" value="" style="endArrow=classic;html=1;rounded=0;exitX=0.083;exitY=1.025;exitDx=0;exitDy=0;exitPerimeter=0;entryX=0.5;entryY=0;entryDx=0;entryDy=0;" edge="1" parent="1" source="cMjgXd80cKfCGWRYWP1n-48" target="cMjgXd80cKfCGWRYWP1n-81">
          <mxGeometry width="50" height="50" relative="1" as="geometry">
            <mxPoint x="390" y="350" as="sourcePoint" />
            <mxPoint x="180" y="350" as="targetPoint" />
            <Array as="points">
              <mxPoint x="160" y="310" />
            </Array>
          </mxGeometry>
        </mxCell>
        <mxCell id="cMjgXd80cKfCGWRYWP1n-66" value="" style="shape=table;startSize=0;container=1;collapsible=0;childLayout=tableLayout;fontSize=16;" vertex="1" parent="1">
          <mxGeometry x="30" y="620" width="360" height="40" as="geometry" />
        </mxCell>
        <mxCell id="cMjgXd80cKfCGWRYWP1n-67" value="" style="shape=tableRow;horizontal=0;startSize=0;swimlaneHead=0;swimlaneBody=0;strokeColor=inherit;top=0;left=0;bottom=0;right=0;collapsible=0;dropTarget=0;fillColor=none;points=[[0,0.5],[1,0.5]];portConstraint=eastwest;fontSize=16;" vertex="1" parent="cMjgXd80cKfCGWRYWP1n-66">
          <mxGeometry width="360" height="40" as="geometry" />
        </mxCell>
        <mxCell id="cMjgXd80cKfCGWRYWP1n-68" value="..." style="shape=partialRectangle;html=1;whiteSpace=wrap;connectable=0;strokeColor=inherit;overflow=hidden;fillColor=none;top=0;left=0;bottom=0;right=0;pointerEvents=1;fontSize=12;" vertex="1" parent="cMjgXd80cKfCGWRYWP1n-67">
          <mxGeometry width="60" height="40" as="geometry">
            <mxRectangle width="60" height="40" as="alternateBounds" />
          </mxGeometry>
        </mxCell>
        <mxCell id="cMjgXd80cKfCGWRYWP1n-69" value="..." style="shape=partialRectangle;html=1;whiteSpace=wrap;connectable=0;strokeColor=inherit;overflow=hidden;fillColor=none;top=0;left=0;bottom=0;right=0;pointerEvents=1;fontSize=12;" vertex="1" parent="cMjgXd80cKfCGWRYWP1n-67">
          <mxGeometry x="60" width="60" height="40" as="geometry">
            <mxRectangle width="60" height="40" as="alternateBounds" />
          </mxGeometry>
        </mxCell>
        <mxCell id="cMjgXd80cKfCGWRYWP1n-70" value="..." style="shape=partialRectangle;html=1;whiteSpace=wrap;connectable=0;strokeColor=inherit;overflow=hidden;fillColor=none;top=0;left=0;bottom=0;right=0;pointerEvents=1;fontSize=12;" vertex="1" parent="cMjgXd80cKfCGWRYWP1n-67">
          <mxGeometry x="120" width="56" height="40" as="geometry">
            <mxRectangle width="56" height="40" as="alternateBounds" />
          </mxGeometry>
        </mxCell>
        <mxCell id="cMjgXd80cKfCGWRYWP1n-71" value="..." style="shape=partialRectangle;html=1;whiteSpace=wrap;connectable=0;strokeColor=inherit;overflow=hidden;fillColor=none;top=0;left=0;bottom=0;right=0;pointerEvents=1;fontSize=12;" vertex="1" parent="cMjgXd80cKfCGWRYWP1n-67">
          <mxGeometry x="176" width="64" height="40" as="geometry">
            <mxRectangle width="64" height="40" as="alternateBounds" />
          </mxGeometry>
        </mxCell>
        <mxCell id="cMjgXd80cKfCGWRYWP1n-72" value="..." style="shape=partialRectangle;html=1;whiteSpace=wrap;connectable=0;overflow=hidden;top=0;left=0;bottom=0;right=0;pointerEvents=1;fontSize=12;strokeColor=default;strokeWidth=1;fillColor=none;" vertex="1" parent="cMjgXd80cKfCGWRYWP1n-67">
          <mxGeometry x="240" width="60" height="40" as="geometry">
            <mxRectangle width="60" height="40" as="alternateBounds" />
          </mxGeometry>
        </mxCell>
        <mxCell id="cMjgXd80cKfCGWRYWP1n-73" value="..." style="shape=partialRectangle;html=1;whiteSpace=wrap;connectable=0;strokeColor=inherit;overflow=hidden;fillColor=none;top=0;left=0;bottom=0;right=0;pointerEvents=1;fontSize=12;" vertex="1" parent="cMjgXd80cKfCGWRYWP1n-67">
          <mxGeometry x="300" width="60" height="40" as="geometry">
            <mxRectangle width="60" height="40" as="alternateBounds" />
          </mxGeometry>
        </mxCell>
        <mxCell id="cMjgXd80cKfCGWRYWP1n-74" value="" style="endArrow=classic;html=1;rounded=0;exitX=0.583;exitY=1.05;exitDx=0;exitDy=0;exitPerimeter=0;entryX=0.5;entryY=0;entryDx=0;entryDy=0;" edge="1" parent="1" source="cMjgXd80cKfCGWRYWP1n-58" target="cMjgXd80cKfCGWRYWP1n-82">
          <mxGeometry width="50" height="50" relative="1" as="geometry">
            <mxPoint x="390" y="350" as="sourcePoint" />
            <mxPoint x="210" y="530" as="targetPoint" />
            <Array as="points">
              <mxPoint x="200" y="490" />
            </Array>
          </mxGeometry>
        </mxCell>
        <mxCell id="cMjgXd80cKfCGWRYWP1n-75" value="&lt;font style=&quot;font-size: 20px;&quot;&gt;SEARCH: &lt;b&gt;&lt;i&gt;cade&lt;/i&gt;&lt;/b&gt;&lt;/font&gt;" style="text;strokeColor=none;align=center;fillColor=none;html=1;verticalAlign=middle;whiteSpace=wrap;rounded=0;" vertex="1" parent="1">
          <mxGeometry x="30" y="55" width="210" height="30" as="geometry" />
        </mxCell>
        <mxCell id="cMjgXd80cKfCGWRYWP1n-76" value="is_word equals true" style="text;strokeColor=none;align=center;fillColor=none;html=1;verticalAlign=middle;whiteSpace=wrap;rounded=0;" vertex="1" parent="1">
          <mxGeometry x="260" y="580" width="60" height="30" as="geometry" />
        </mxCell>
        <mxCell id="cMjgXd80cKfCGWRYWP1n-80" value="NODE" style="rounded=0;whiteSpace=wrap;html=1;fillColor=#e1d5e7;strokeColor=#9673a6;" vertex="1" parent="1">
          <mxGeometry x="190" y="190" width="90" height="50" as="geometry" />
        </mxCell>
        <mxCell id="cMjgXd80cKfCGWRYWP1n-81" value="NODE" style="rounded=0;whiteSpace=wrap;html=1;fillColor=#e1d5e7;strokeColor=#9673a6;" vertex="1" parent="1">
          <mxGeometry x="165" y="370" width="90" height="50" as="geometry" />
        </mxCell>
        <mxCell id="cMjgXd80cKfCGWRYWP1n-82" value="NODE" style="rounded=0;whiteSpace=wrap;html=1;fillColor=#d5e8d4;strokeColor=#82b366;" vertex="1" parent="1">
          <mxGeometry x="165" y="570" width="90" height="50" as="geometry" />
        </mxCell>
        <mxCell id="cMjgXd80cKfCGWRYWP1n-83" value="&lt;div style=&quot;&quot;&gt;&amp;nbsp; &amp;nbsp; &amp;nbsp;0 &amp;nbsp; &amp;nbsp; &amp;nbsp; &amp;nbsp; &amp;nbsp; &amp;nbsp; &amp;nbsp; &amp;nbsp;1 &amp;nbsp; &amp;nbsp; &amp;nbsp; &amp;nbsp; &amp;nbsp; &amp;nbsp; &amp;nbsp; 2(c) &amp;nbsp; &amp;nbsp; &amp;nbsp; &amp;nbsp; &amp;nbsp; &amp;nbsp; 3 &amp;nbsp; &amp;nbsp; &amp;nbsp; &amp;nbsp; &amp;nbsp; &amp;nbsp; &amp;nbsp; &amp;nbsp; 4 &amp;nbsp; &amp;nbsp; &amp;nbsp; &amp;nbsp; &amp;nbsp; &amp;nbsp; &amp;nbsp; &amp;nbsp;5 &amp;nbsp; &amp;nbsp; &amp;nbsp; &amp;nbsp;&lt;span style=&quot;white-space: pre;&quot;&gt;		&lt;/span&gt;&lt;/div&gt;&lt;span style=&quot;white-space: pre;&quot;&gt;&lt;/span&gt;" style="text;strokeColor=none;align=left;fillColor=none;html=1;verticalAlign=middle;whiteSpace=wrap;rounded=0;fontStyle=1" vertex="1" parent="1">
          <mxGeometry x="240" y="150" width="350" height="30" as="geometry" />
        </mxCell>
        <mxCell id="cMjgXd80cKfCGWRYWP1n-85" value="&lt;div style=&quot;&quot;&gt;&amp;nbsp; &amp;nbsp; &amp;nbsp;0(a) &amp;nbsp; &amp;nbsp; &amp;nbsp; &amp;nbsp; &amp;nbsp; &amp;nbsp;1 &amp;nbsp; &amp;nbsp; &amp;nbsp; &amp;nbsp; &amp;nbsp; &amp;nbsp; &amp;nbsp; 2 &amp;nbsp; &amp;nbsp; &amp;nbsp; &amp;nbsp; &amp;nbsp; &amp;nbsp; &amp;nbsp; &amp;nbsp;3 &amp;nbsp; &amp;nbsp; &amp;nbsp; &amp;nbsp; &amp;nbsp; &amp;nbsp; &amp;nbsp; &amp;nbsp; 4 &amp;nbsp; &amp;nbsp; &amp;nbsp; &amp;nbsp; &amp;nbsp; &amp;nbsp; &amp;nbsp; &amp;nbsp;5 &amp;nbsp; &amp;nbsp; &amp;nbsp; &amp;nbsp;&lt;span style=&quot;white-space: pre;&quot;&gt;		&lt;/span&gt;&lt;/div&gt;&lt;span style=&quot;white-space: pre;&quot;&gt;&lt;/span&gt;" style="text;strokeColor=none;align=left;fillColor=none;html=1;verticalAlign=middle;whiteSpace=wrap;rounded=0;fontStyle=1" vertex="1" parent="1">
          <mxGeometry x="75" y="290" width="350" height="30" as="geometry" />
        </mxCell>
        <mxCell id="cMjgXd80cKfCGWRYWP1n-86" value="&lt;div style=&quot;&quot;&gt;&amp;nbsp; &amp;nbsp; &amp;nbsp;0 &amp;nbsp; &amp;nbsp; &amp;nbsp; &amp;nbsp; &amp;nbsp; &amp;nbsp; &amp;nbsp; &amp;nbsp;1 &amp;nbsp; &amp;nbsp; &amp;nbsp; &amp;nbsp; &amp;nbsp; &amp;nbsp; &amp;nbsp; 2 &amp;nbsp; &amp;nbsp; &amp;nbsp; &amp;nbsp; &amp;nbsp; &amp;nbsp; &amp;nbsp; &amp;nbsp;3(d) &amp;nbsp; &amp;nbsp; &amp;nbsp; &amp;nbsp; &amp;nbsp; &amp;nbsp; 4 &amp;nbsp; &amp;nbsp; &amp;nbsp; &amp;nbsp; &amp;nbsp; &amp;nbsp; &amp;nbsp; &amp;nbsp;5 &amp;nbsp; &amp;nbsp; &amp;nbsp; &amp;nbsp;&lt;span style=&quot;white-space: pre;&quot;&gt;		&lt;/span&gt;&lt;/div&gt;&lt;span style=&quot;white-space: pre;&quot;&gt;&lt;/span&gt;" style="text;strokeColor=none;align=left;fillColor=none;html=1;verticalAlign=middle;whiteSpace=wrap;rounded=0;fontStyle=1" vertex="1" parent="1">
          <mxGeometry x="35" y="470" width="350" height="30" as="geometry" />
        </mxCell>
      </root>
    </mxGraphModel>
  </diagram>
  <diagram id="eYiC-XrU6h1uq4tMhuBS" name="Page-2">
    <mxGraphModel dx="1363" dy="889" grid="1" gridSize="10" guides="1" tooltips="1" connect="1" arrows="1" fold="1" page="1" pageScale="1" pageWidth="1920" pageHeight="1200" math="0" shadow="0">
      <root>
        <mxCell id="0" />
        <mxCell id="1" parent="0" />
        <mxCell id="d58hbfGJbKiO_fAoCglv-25" value="" style="group" vertex="1" connectable="0" parent="1">
          <mxGeometry x="490" y="290" width="180" height="100" as="geometry" />
        </mxCell>
        <mxCell id="d58hbfGJbKiO_fAoCglv-21" value="&lt;b&gt;PARENT 0&lt;/b&gt;" style="rounded=0;whiteSpace=wrap;html=1;" vertex="1" parent="d58hbfGJbKiO_fAoCglv-25">
          <mxGeometry x="25" width="131" height="50" as="geometry" />
        </mxCell>
        <mxCell id="d58hbfGJbKiO_fAoCglv-22" value="Allele" style="rounded=0;whiteSpace=wrap;html=1;" vertex="1" parent="d58hbfGJbKiO_fAoCglv-25">
          <mxGeometry x="25" y="50" width="131" height="20" as="geometry" />
        </mxCell>
        <mxCell id="d58hbfGJbKiO_fAoCglv-23" value="pointer 0" style="rounded=0;whiteSpace=wrap;html=1;" vertex="1" parent="d58hbfGJbKiO_fAoCglv-25">
          <mxGeometry y="70" width="90" height="30" as="geometry" />
        </mxCell>
        <mxCell id="d58hbfGJbKiO_fAoCglv-24" value="pointer 1" style="rounded=0;whiteSpace=wrap;html=1;" vertex="1" parent="d58hbfGJbKiO_fAoCglv-25">
          <mxGeometry x="90" y="70" width="90" height="30" as="geometry" />
        </mxCell>
        <mxCell id="d58hbfGJbKiO_fAoCglv-26" value="" style="group" vertex="1" connectable="0" parent="1">
          <mxGeometry x="889" y="110" width="180" height="100" as="geometry" />
        </mxCell>
        <mxCell id="d58hbfGJbKiO_fAoCglv-1" value="&lt;b&gt;PERSON&lt;/b&gt;" style="rounded=0;whiteSpace=wrap;html=1;fillColor=#dae8fc;strokeColor=default;" vertex="1" parent="d58hbfGJbKiO_fAoCglv-26">
          <mxGeometry x="25" width="131" height="50" as="geometry" />
        </mxCell>
        <mxCell id="d58hbfGJbKiO_fAoCglv-2" value="Allele" style="rounded=0;whiteSpace=wrap;html=1;fillColor=#dae8fc;strokeColor=default;" vertex="1" parent="d58hbfGJbKiO_fAoCglv-26">
          <mxGeometry x="25" y="50" width="131" height="20" as="geometry" />
        </mxCell>
        <mxCell id="d58hbfGJbKiO_fAoCglv-17" value="pointer" style="rounded=0;whiteSpace=wrap;html=1;fillColor=#dae8fc;strokeColor=default;" vertex="1" parent="d58hbfGJbKiO_fAoCglv-26">
          <mxGeometry y="70" width="90" height="30" as="geometry" />
        </mxCell>
        <mxCell id="d58hbfGJbKiO_fAoCglv-18" value="pointer" style="rounded=0;whiteSpace=wrap;html=1;fillColor=#dae8fc;strokeColor=default;" vertex="1" parent="d58hbfGJbKiO_fAoCglv-26">
          <mxGeometry x="90" y="70" width="90" height="30" as="geometry" />
        </mxCell>
        <mxCell id="d58hbfGJbKiO_fAoCglv-27" value="" style="group" vertex="1" connectable="0" parent="1">
          <mxGeometry x="1230" y="290" width="180" height="100" as="geometry" />
        </mxCell>
        <mxCell id="d58hbfGJbKiO_fAoCglv-28" value="&lt;b&gt;PARENT 1&lt;/b&gt;" style="rounded=0;whiteSpace=wrap;html=1;" vertex="1" parent="d58hbfGJbKiO_fAoCglv-27">
          <mxGeometry x="25" width="131" height="50" as="geometry" />
        </mxCell>
        <mxCell id="d58hbfGJbKiO_fAoCglv-29" value="Allele" style="rounded=0;whiteSpace=wrap;html=1;" vertex="1" parent="d58hbfGJbKiO_fAoCglv-27">
          <mxGeometry x="25" y="50" width="131" height="20" as="geometry" />
        </mxCell>
        <mxCell id="d58hbfGJbKiO_fAoCglv-30" value="pointer" style="rounded=0;whiteSpace=wrap;html=1;" vertex="1" parent="d58hbfGJbKiO_fAoCglv-27">
          <mxGeometry y="70" width="90" height="30" as="geometry" />
        </mxCell>
        <mxCell id="d58hbfGJbKiO_fAoCglv-31" value="pointer" style="rounded=0;whiteSpace=wrap;html=1;" vertex="1" parent="d58hbfGJbKiO_fAoCglv-27">
          <mxGeometry x="90" y="70" width="90" height="30" as="geometry" />
        </mxCell>
        <mxCell id="d58hbfGJbKiO_fAoCglv-33" value="" style="group" vertex="1" connectable="0" parent="1">
          <mxGeometry x="340" y="474" width="180" height="100" as="geometry" />
        </mxCell>
        <mxCell id="d58hbfGJbKiO_fAoCglv-34" value="&lt;b&gt;GRANDPARENT 0.0&lt;/b&gt;" style="rounded=0;whiteSpace=wrap;html=1;" vertex="1" parent="d58hbfGJbKiO_fAoCglv-33">
          <mxGeometry x="25" width="131" height="50" as="geometry" />
        </mxCell>
        <mxCell id="d58hbfGJbKiO_fAoCglv-35" value="Allele" style="rounded=0;whiteSpace=wrap;html=1;" vertex="1" parent="d58hbfGJbKiO_fAoCglv-33">
          <mxGeometry x="25" y="50" width="131" height="20" as="geometry" />
        </mxCell>
        <mxCell id="d58hbfGJbKiO_fAoCglv-36" value="pointer 0" style="rounded=0;whiteSpace=wrap;html=1;" vertex="1" parent="d58hbfGJbKiO_fAoCglv-33">
          <mxGeometry y="70" width="90" height="30" as="geometry" />
        </mxCell>
        <mxCell id="d58hbfGJbKiO_fAoCglv-37" value="pointer 1" style="rounded=0;whiteSpace=wrap;html=1;" vertex="1" parent="d58hbfGJbKiO_fAoCglv-33">
          <mxGeometry x="90" y="70" width="90" height="30" as="geometry" />
        </mxCell>
        <mxCell id="d58hbfGJbKiO_fAoCglv-38" value="" style="group" vertex="1" connectable="0" parent="1">
          <mxGeometry x="630" y="474" width="180" height="100" as="geometry" />
        </mxCell>
        <mxCell id="d58hbfGJbKiO_fAoCglv-39" value="&lt;b&gt;GRANDPARENT 0.1&lt;/b&gt;" style="rounded=0;whiteSpace=wrap;html=1;" vertex="1" parent="d58hbfGJbKiO_fAoCglv-38">
          <mxGeometry x="25" width="131" height="50" as="geometry" />
        </mxCell>
        <mxCell id="d58hbfGJbKiO_fAoCglv-40" value="Allele" style="rounded=0;whiteSpace=wrap;html=1;" vertex="1" parent="d58hbfGJbKiO_fAoCglv-38">
          <mxGeometry x="25" y="50" width="131" height="20" as="geometry" />
        </mxCell>
        <mxCell id="d58hbfGJbKiO_fAoCglv-41" value="pointer 0" style="rounded=0;whiteSpace=wrap;html=1;" vertex="1" parent="d58hbfGJbKiO_fAoCglv-38">
          <mxGeometry y="70" width="90" height="30" as="geometry" />
        </mxCell>
        <mxCell id="d58hbfGJbKiO_fAoCglv-42" value="pointer 1" style="rounded=0;whiteSpace=wrap;html=1;" vertex="1" parent="d58hbfGJbKiO_fAoCglv-38">
          <mxGeometry x="90" y="70" width="90" height="30" as="geometry" />
        </mxCell>
        <mxCell id="d58hbfGJbKiO_fAoCglv-43" value="" style="group" vertex="1" connectable="0" parent="1">
          <mxGeometry x="1080" y="474" width="180" height="100" as="geometry" />
        </mxCell>
        <mxCell id="d58hbfGJbKiO_fAoCglv-44" value="&lt;b&gt;GRANDPARENT 1.0&lt;/b&gt;" style="rounded=0;whiteSpace=wrap;html=1;" vertex="1" parent="d58hbfGJbKiO_fAoCglv-43">
          <mxGeometry x="25" width="131" height="50" as="geometry" />
        </mxCell>
        <mxCell id="d58hbfGJbKiO_fAoCglv-45" value="Allele" style="rounded=0;whiteSpace=wrap;html=1;" vertex="1" parent="d58hbfGJbKiO_fAoCglv-43">
          <mxGeometry x="25" y="50" width="131" height="20" as="geometry" />
        </mxCell>
        <mxCell id="d58hbfGJbKiO_fAoCglv-46" value="pointer" style="rounded=0;whiteSpace=wrap;html=1;" vertex="1" parent="d58hbfGJbKiO_fAoCglv-43">
          <mxGeometry y="70" width="90" height="30" as="geometry" />
        </mxCell>
        <mxCell id="d58hbfGJbKiO_fAoCglv-47" value="pointer" style="rounded=0;whiteSpace=wrap;html=1;" vertex="1" parent="d58hbfGJbKiO_fAoCglv-43">
          <mxGeometry x="90" y="70" width="90" height="30" as="geometry" />
        </mxCell>
        <mxCell id="d58hbfGJbKiO_fAoCglv-48" value="" style="group" vertex="1" connectable="0" parent="1">
          <mxGeometry x="1390" y="474" width="180" height="100" as="geometry" />
        </mxCell>
        <mxCell id="d58hbfGJbKiO_fAoCglv-49" value="&lt;b&gt;GRANDPARENT 1.1&lt;/b&gt;" style="rounded=0;whiteSpace=wrap;html=1;" vertex="1" parent="d58hbfGJbKiO_fAoCglv-48">
          <mxGeometry x="25" width="131" height="50" as="geometry" />
        </mxCell>
        <mxCell id="d58hbfGJbKiO_fAoCglv-50" value="Allele" style="rounded=0;whiteSpace=wrap;html=1;" vertex="1" parent="d58hbfGJbKiO_fAoCglv-48">
          <mxGeometry x="25" y="50" width="131" height="20" as="geometry" />
        </mxCell>
        <mxCell id="d58hbfGJbKiO_fAoCglv-51" value="pointer" style="rounded=0;whiteSpace=wrap;html=1;" vertex="1" parent="d58hbfGJbKiO_fAoCglv-48">
          <mxGeometry y="70" width="90" height="30" as="geometry" />
        </mxCell>
        <mxCell id="d58hbfGJbKiO_fAoCglv-52" value="pointer" style="rounded=0;whiteSpace=wrap;html=1;" vertex="1" parent="d58hbfGJbKiO_fAoCglv-48">
          <mxGeometry x="90" y="70" width="90" height="30" as="geometry" />
        </mxCell>
        <mxCell id="d58hbfGJbKiO_fAoCglv-53" style="edgeStyle=orthogonalEdgeStyle;rounded=0;orthogonalLoop=1;jettySize=auto;html=1;exitX=0.5;exitY=1;exitDx=0;exitDy=0;" edge="1" parent="1" source="d58hbfGJbKiO_fAoCglv-17" target="d58hbfGJbKiO_fAoCglv-21">
          <mxGeometry relative="1" as="geometry" />
        </mxCell>
        <mxCell id="d58hbfGJbKiO_fAoCglv-54" style="edgeStyle=orthogonalEdgeStyle;rounded=0;orthogonalLoop=1;jettySize=auto;html=1;exitX=0.5;exitY=1;exitDx=0;exitDy=0;entryX=0.5;entryY=0;entryDx=0;entryDy=0;" edge="1" parent="1" source="d58hbfGJbKiO_fAoCglv-23" target="d58hbfGJbKiO_fAoCglv-34">
          <mxGeometry relative="1" as="geometry" />
        </mxCell>
        <mxCell id="d58hbfGJbKiO_fAoCglv-55" style="edgeStyle=orthogonalEdgeStyle;rounded=0;orthogonalLoop=1;jettySize=auto;html=1;exitX=0.5;exitY=1;exitDx=0;exitDy=0;" edge="1" parent="1" source="d58hbfGJbKiO_fAoCglv-24" target="d58hbfGJbKiO_fAoCglv-39">
          <mxGeometry relative="1" as="geometry" />
        </mxCell>
        <mxCell id="d58hbfGJbKiO_fAoCglv-56" style="edgeStyle=orthogonalEdgeStyle;rounded=0;orthogonalLoop=1;jettySize=auto;html=1;exitX=0.5;exitY=1;exitDx=0;exitDy=0;entryX=0.5;entryY=0;entryDx=0;entryDy=0;" edge="1" parent="1" source="d58hbfGJbKiO_fAoCglv-18" target="d58hbfGJbKiO_fAoCglv-28">
          <mxGeometry relative="1" as="geometry" />
        </mxCell>
        <mxCell id="d58hbfGJbKiO_fAoCglv-57" style="edgeStyle=orthogonalEdgeStyle;rounded=0;orthogonalLoop=1;jettySize=auto;html=1;exitX=0.5;exitY=1;exitDx=0;exitDy=0;" edge="1" parent="1" source="d58hbfGJbKiO_fAoCglv-30" target="d58hbfGJbKiO_fAoCglv-44">
          <mxGeometry relative="1" as="geometry" />
        </mxCell>
        <mxCell id="d58hbfGJbKiO_fAoCglv-58" style="edgeStyle=orthogonalEdgeStyle;rounded=0;orthogonalLoop=1;jettySize=auto;html=1;exitX=0.5;exitY=1;exitDx=0;exitDy=0;" edge="1" parent="1" source="d58hbfGJbKiO_fAoCglv-31" target="d58hbfGJbKiO_fAoCglv-49">
          <mxGeometry relative="1" as="geometry" />
        </mxCell>
        <mxCell id="d58hbfGJbKiO_fAoCglv-59" value="&lt;font style=&quot;font-size: 30px;&quot;&gt;Generation 0&lt;/font&gt;" style="text;strokeColor=none;align=center;fillColor=none;html=1;verticalAlign=middle;whiteSpace=wrap;rounded=0;" vertex="1" parent="1">
          <mxGeometry x="680" y="140" width="210" height="30" as="geometry" />
        </mxCell>
        <mxCell id="d58hbfGJbKiO_fAoCglv-60" value="&lt;font style=&quot;font-size: 30px;&quot;&gt;Generation 1&lt;/font&gt;" style="text;strokeColor=none;align=center;fillColor=none;html=1;verticalAlign=middle;whiteSpace=wrap;rounded=0;" vertex="1" parent="1">
          <mxGeometry x="690" y="310" width="210" height="30" as="geometry" />
        </mxCell>
        <mxCell id="d58hbfGJbKiO_fAoCglv-61" value="&lt;font style=&quot;font-size: 30px;&quot;&gt;Generation 2&lt;/font&gt;" style="text;strokeColor=none;align=center;fillColor=none;html=1;verticalAlign=middle;whiteSpace=wrap;rounded=0;" vertex="1" parent="1">
          <mxGeometry x="810" y="509" width="210" height="30" as="geometry" />
        </mxCell>
      </root>
    </mxGraphModel>
  </diagram>
</mxfile>
